# xmcd CD database file
# Copyright (C) 1993-1996 Ti Kan
#
# Track frame offsets:
#	150
#	12077
#	30200
#	41777
#	54582
#	69045
#	81002
#	96852
#	110030
#	120822
#	135880
#	146072
#	156580
#	168255
#	179940
#	192827
#	208180
#	216940
#
# Disc length: 3042 seconds
#
# Revision: 1
# Processed by: cddbd v1.4b41PL1 Copyright (c) Steve Scherf et al.
# Submitted via: CDValet v3.30 - Copyright (c) 1997 Greg Leichner
#
DISCID=f80be012
DTITLE=Mixed Artists - Country and Western Classics volume two
DYEAR=1900
DGENRE=
TTITLE0=Johnny Tillotson - Heartaches by the number
TTITLE1=Roger Whittaker - Both sides now (live)
TTITLE2=Patsy Cline - I've loved and lost again
TTITLE3=Lee Hazlewood - Those boots are made for walking
TTITLE4=Loretta Lynn - Coleminer's daughter
TTITLE5=Carroll Baker - Will the circle be unbroken
TTITLE6=Billie Jo Spears - Queen of the silver dollar
TTITLE7=Kenny Rogers and The First Edition - Ruby don't take your
TTITLE7=love to town
TTITLE8=Donna Fargo - All that's keeping me alive
TTITLE9=Willie Nelson - Face of a fighter
TTITLE10=Barbara Mandall - Kaw-Liga
TTITLE11=Jimmy Rodgers - Kisses sweeter than wine (live)
TTITLE12=Guy Mitchell - Heartaches by the number
TTITLE13=Karl Denver - Wimoweh
TTITLE14=Freddy Fender - Silver Wings
TTITLE15=Don Fardon - Indian reservation
TTITLE16=Sandy Posey - Born a woman
TTITLE17=George Jones - I can't change overnight
EXTD=
EXTT0=
EXTT1=
EXTT2=
EXTT3=
EXTT4=
EXTT5=
EXTT6=
EXTT7=
EXTT8=
EXTT9=
EXTT10=
EXTT11=
EXTT12=
EXTT13=
EXTT14=
EXTT15=
EXTT16=
EXTT17=
PLAYORDER=
